<?xml version="1.0" encoding="UTF-8" standalone="no"?>
<!-- Created with Inkscape (http://www.inkscape.org/) -->

<svg
   version="1.1"
   id="svg1"
   width="256"
   height="167.36"
   viewBox="0 0 256 167.36"
   sodipodi:docname="speedy.svg"
   xmlns:inkscape="http://www.inkscape.org/namespaces/inkscape"
   xmlns:sodipodi="http://sodipodi.sourceforge.net/DTD/sodipodi-0.dtd"
   xmlns="http://www.w3.org/2000/svg"
   xmlns:svg="http://www.w3.org/2000/svg">
  <defs
     id="defs1" />
  <sodipodi:namedview
     id="namedview1"
     pagecolor="#ffffff"
     bordercolor="#000000"
     borderopacity="0.25"
     inkscape:showpageshadow="2"
     inkscape:pageopacity="0.0"
     inkscape:pagecheckerboard="0"
     inkscape:deskcolor="#d1d1d1"
     inkscape:export-bgcolor="#ffffff00">
    <inkscape:page
       x="0"
       y="0"
       width="256"
       height="167.36"
       id="page2"
       margin="0"
       bleed="0" />
  </sodipodi:namedview>
  <g
     inkscape:groupmode="layer"
     inkscape:label="Image"
     id="g1">
    <g
       id="g12"
       inkscape:export-filename="speedy.svg"
       inkscape:export-xdpi="96"
       inkscape:export-ydpi="96">
      <path
         style="fill:transparent"
         d="m 0.04057759,152.24 c 0.04019249,-14.9765 0.12877709,-15.73541 0.90202921,-7.72768 0.1716678,1.77778 0.5416438,4.3435 0.8221688,5.70161 0.280525,1.35811 0.5778856,2.99956 0.6608013,3.64768 0.082916,0.64811 0.523994,2.61839 0.980174,4.37839 0.4561799,1.76 0.94059,3.704 1.0764669,4.32 0.679075,3.0786 1.2601092,3.7426 3.6618683,4.18478 1.0026717,0.1846 2.0945819,-0.0192 5.2799999,-0.98562 2.208753,-0.67009 6.319914,-1.88306 9.135914,-2.6955 2.816,-0.81244 7.064,-2.04293 9.44,-2.73442 2.376,-0.6915 6.336,-1.83994 8.8,-2.55211 2.464,-0.71216 5.227062,-1.51589 6.140137,-1.78607 3.035592,-0.89824 3.576759,-2.85612 2.205195,-7.97812 -3.596921,-13.43243 -3.334235,-28.38695 0.750632,-42.73294 2.142511,-7.524465 2.134067,-7.474136 1.492667,-8.896507 C 51.033326,95.595567 50.47293,94.955605 49.961765,94.754037 48.612402,94.221943 44.937209,92.856504 40.8,91.350181 38.688,90.581219 34.584,89.077455 31.68,88.008484 28.776,86.939512 24.456,85.354639 22.08,84.486544 19.704,83.618449 16.561563,82.469846 15.096806,81.934095 11.042378,80.45114 9.1005425,80.705978 8.0181837,82.86306 7.1954818,84.50266 4.6868571,92.614697 3.5597851,97.28 2.1560905,103.09033 1.2775332,108.48366 0.64066746,115.2 0.08545742,121.05521 0.0788797,120.45721 0.03965686,60.56 L 0,0 62.48,0.04843422 c 34.364,0.02663882 60.35706,0.1582799 57.76236,0.29253574 C 110.51125,0.84448041 99.916334,2.6781169 90.4,5.5057146 c -4.148793,1.2327351 -5.28,2.1640069 -5.28,4.3467878 0,0.7612006 11.731896,37.1554256 12.588483,39.0514966 0.815839,1.805874 3.127597,2.071034 7.359557,0.844146 7.45303,-2.160709 14.78876,-3.177004 22.93196,-3.177004 8.1432,0 15.47893,1.016295 22.93196,3.177004 4.23196,1.226888 6.54372,0.961728 7.35956,-0.844146 C 159.1481,47.007928 170.88,10.613703 170.88,9.8525024 170.88,7.6697215 169.74879,6.7384497 165.6,5.5057146 156.08367,2.6781169 145.48875,0.84448041 135.75764,0.34096996 133.16294,0.20671412 159.156,0.07507304 193.52,0.04843422 L 256,0 255.9594,58 c -0.0223,31.9 -0.15102,57.136 -0.28601,56.08 -0.13498,-1.056 -0.32445,-2.568 -0.42102,-3.36 -0.0966,-0.792 -0.2373,-1.8 -0.31271,-2.24 -0.35384,-2.06444 -0.59518,-3.52363 -0.89973,-5.44 -0.1818,-1.144 -0.41698,-2.296 -0.52262,-2.56 -0.10564,-0.264 -0.22985,-0.696 -0.27602,-0.96 -0.20097,-1.149131 -1.05983,-4.79588 -1.54497,-6.56 -0.29041,-1.056 -0.56094,-2.064 -0.60118,-2.24 -0.0402,-0.176 -0.16959,-0.47409 -0.28746,-0.662423 -0.11787,-0.188333 -0.2834,-0.692333 -0.36786,-1.12 -0.44109,-2.233677 -2.17013,-6.555046 -2.94733,-7.366274 -0.47875,-0.4997 -0.96329,-0.851168 -1.07676,-0.781039 -0.11347,0.07013 -0.38924,0.01445 -0.61282,-0.123733 -0.47258,-0.292068 -3.40916,0.183779 -4.3558,0.705817 -0.35592,0.19628 -0.83838,0.388707 -1.07212,0.427615 -0.23374,0.03891 -0.66574,0.175584 -0.96,0.303723 -0.29426,0.128139 -0.67901,0.272281 -0.85501,0.320315 -0.176,0.04803 -2.12,0.755703 -4.32,1.572599 -2.2,0.816895 -4.23568,1.536434 -4.52374,1.598976 -0.28806,0.06254 -0.79206,0.264583 -1.12,0.448983 -0.32794,0.1844 -1.24426,0.549488 -2.03626,0.811306 -0.792,0.261819 -2.448,0.847161 -3.68,1.30076 -1.232,0.4536 -2.47568,0.880512 -2.76374,0.948694 -0.28806,0.06818 -0.79206,0.272631 -1.12,0.45433 -0.32794,0.1817 -1.74826,0.718031 -3.15626,1.191847 -1.408,0.473817 -2.74,1.002197 -2.96,1.174177 -0.22,0.171981 -0.4,0.206498 -0.4,0.07671 0,-0.129792 -0.37249,0.0081 -0.82776,0.306387 -0.45527,0.298305 -0.90748,0.462661 -1.00491,0.365235 -0.0974,-0.09743 -0.55293,0.02279 -1.01223,0.267134 -0.45931,0.244349 -1.67351,0.765503 -2.69822,1.15812 -2.16668,0.830152 -2.89181,1.734965 -2.97023,3.706195 -0.0461,1.159108 1.20496,6.006906 2.01152,7.794546 0.11911,0.264 0.25253,0.696 0.29649,0.96 0.0439,0.264 0.15502,0.768 0.24682,1.12 0.36109,1.38462 1.51548,7.10243 1.64745,8.16 0.0769,0.616 0.20983,1.552 0.29546,2.08 0.28398,1.75102 0.82534,10.64143 0.67496,11.08452 -0.0813,0.23951 -0.22141,2.09569 -0.3114,4.12484 -0.09,2.02914 -0.39449,5.02721 -0.67668,6.66237 -0.28218,1.63516 -0.55923,3.35895 -0.61568,3.83064 -0.0564,0.4717 -0.12875,0.85763 -0.1607,0.85763 -0.0319,0 -0.11633,0.4422 -0.18752,0.98267 -0.0712,0.54047 -0.40257,1.86027 -0.73641,2.93289 -0.52734,1.69435 -0.64784,3.79948 -0.3309,5.78087 0.0998,0.6241 1.81122,1.958 2.7846,2.17039 0.47044,0.10265 1.07134,0.26836 1.33534,0.36824 0.66087,0.25004 0.99293,0.344 1.92,0.54327 0.44,0.0946 1.91469,0.52738 3.27709,0.96177 1.3624,0.4344 2.98399,0.8849 3.60353,1.00113 0.61955,0.11623 1.20681,0.34135 1.30503,0.50027 0.0982,0.15892 0.29117,0.21935 0.42879,0.1343 0.13762,-0.0851 1.5527,0.27121 3.14462,0.79171 1.59192,0.52049 3.16137,0.9981 3.48767,1.06135 0.3263,0.0632 0.80927,0.1921 1.07327,0.28635 0.57881,0.20664 5.97822,1.80578 6.88,2.03765 0.352,0.0905 0.784,0.20388 0.96,0.25195 0.176,0.0481 0.968,0.26257 1.76,0.47669 0.792,0.21412 2.65261,0.75873 4.13469,1.21025 1.48207,0.45151 2.88191,0.84841 3.11073,0.882 0.22883,0.0336 0.51622,0.16123 0.63865,0.28366 0.12243,0.12242 -55.1694,0.22259 -122.87074,0.22259 H 0 Z M 130.91625,143.51943 c 2.17029,-0.27274 5.82232,-2.15377 7.78451,-4.00953 2.12333,-2.00817 1.40267,-0.92297 19.86287,-29.9099 8.40636,-13.2 15.62455,-24.407098 16.04042,-24.904663 1.33664,-1.599198 1.38184,-3.42945 0.11595,-4.695337 -1.24386,-1.243856 -3.26402,-1.215981 -4.54268,0.06268 -0.37752,0.377522 -12.00186,8.358585 -25.83186,17.735697 -13.83,9.377113 -26.04733,17.866413 -27.14961,18.865123 -6.39598,5.79495 -6.62172,15.82976 -0.50046,22.24726 3.00462,3.15003 8.30176,5.31796 11.94461,4.8885 0.44,-0.0519 1.46431,-0.1778 2.27625,-0.27983 z M 208.32,90.643455 c 1.848,-0.963418 3.54,-1.897953 3.76,-2.076744 0.22,-0.178792 0.4,-0.225638 0.4,-0.104103 0,0.121535 0.41823,-0.07683 0.9294,-0.440818 0.51117,-0.363984 1.05374,-0.66179 1.20572,-0.66179 0.15197,0 0.81374,-0.365191 1.4706,-0.811536 0.65685,-0.446345 1.19428,-0.732539 1.19428,-0.635986 0,0.09655 0.57314,-0.186256 1.27364,-0.628463 0.7005,-0.442208 1.4205,-0.804015 1.6,-0.804015 0.1795,0 0.32636,-0.168 0.32636,-0.373333 0,-0.205333 0.0918,-0.281588 0.20388,-0.169454 0.11213,0.112133 0.61613,-0.08967 1.12,-0.448457 0.50387,-0.358785 0.91612,-0.568724 0.91612,-0.466532 0,0.102193 0.54,-0.144102 1.2,-0.547321 0.66,-0.403219 2.064,-1.15152 3.12,-1.66289 1.056,-0.511371 2.316,-1.201076 2.8,-1.532679 0.484,-0.331603 0.88,-0.511303 0.88,-0.399334 0,0.111969 0.396,-0.07775 0.88,-0.421604 0.484,-0.343852 1.384,-0.849802 2,-1.124334 0.616,-0.274532 1.552,-0.755967 2.08,-1.069856 2.26231,-1.344912 3.21483,-1.860578 3.44003,-1.862334 0.13202,-10e-4 0.75736,-0.414657 1.38965,-0.919171 1.08206,-0.863393 1.99204,-2.530877 1.76962,-3.242701 -0.055,-0.176 -0.15352,-0.589926 -0.21894,-0.919835 -0.0654,-0.32991 -0.34309,-0.94191 -0.61703,-1.36 C 241.16938,67.542074 241.02748,67.2 241.128,67.2 c 0.10051,0 -0.26309,-0.648 -0.808,-1.44 -0.54491,-0.792 -0.89956,-1.44 -0.78812,-1.44 0.11145,0 -0.3259,-0.72 -0.97188,-1.6 -0.64598,-0.88 -1.0857,-1.6 -0.97716,-1.6 0.10854,0 -0.38319,-0.785851 -1.09275,-1.746336 C 235.78054,58.413179 235.2,57.484335 235.2,57.309565 c 0,-0.17477 -0.252,-0.46454 -0.56,-0.643933 -0.308,-0.179394 -0.4396,-0.330549 -0.29245,-0.335901 0.14716,-0.0054 -0.46484,-0.930149 -1.36,-2.055104 -0.89515,-1.124956 -1.62755,-2.147535 -1.62755,-2.272399 0,-0.281023 -5.43297,-6.814489 -6.36296,-7.651824 -0.37237,-0.335278 -0.67757,-0.695278 -0.67821,-0.8 -0.002,-0.352388 -10.39525,-10.932993 -10.72807,-10.921637 C 213.40967,32.634945 212.33383,31.704 211.2,30.56 c -1.13383,-1.144 -2.1904,-2.08 -2.34793,-2.08 -0.15753,0 -1.26096,-0.864 -2.45207,-1.92 -1.19111,-1.056 -2.26283,-1.92 -2.38159,-1.92 -0.11877,0 -0.74749,-0.406916 -1.39717,-0.904258 -2.34704,-1.796703 -3.74149,-2.76729 -3.75418,-2.613046 -0.007,0.08652 -0.60384,-0.310696 -1.32605,-0.882696 -0.72221,-0.572 -1.40999,-1.04 -1.52841,-1.04 -0.11842,0 -0.68729,-0.36 -1.26416,-0.8 -0.57687,-0.44 -1.16567,-0.8 -1.30844,-0.8 -0.14277,0 -0.74118,-0.367328 -1.32979,-0.816285 -0.58862,-0.448957 -1.07021,-0.719866 -1.07021,-0.60202 0,0.117846 -0.504,-0.170154 -1.12,-0.64 -0.616,-0.469846 -1.12,-0.757305 -1.12,-0.638798 0,0.118507 -0.18,0.06669 -0.4,-0.115153 -1.34002,-1.107593 -6.0491,-3.164276 -6.8,-2.96989 -0.176,0.04556 -0.59639,0.137612 -0.93421,0.204558 -1.08146,0.214317 -2.44791,1.831111 -3.63216,4.297588 -0.63378,1.32 -1.16672,2.472 -1.18432,2.56 -0.0176,0.088 -0.23778,0.52 -0.48931,0.96 -0.25153,0.44 -0.46998,0.872 -0.48545,0.96 -0.0155,0.088 -0.80502,1.744 -1.75455,3.68 -0.94953,1.936 -1.73908,3.592 -1.75455,3.68 -0.0155,0.088 -0.23392,0.52 -0.48545,0.96 -0.25153,0.44 -0.46719,0.872 -0.47926,0.96 -0.0121,0.088 -0.77424,1.707485 -1.69371,3.598855 -0.91948,1.89137 -1.63527,3.47537 -1.59065,3.52 0.0446,0.04463 -0.25212,0.549145 -0.65941,1.121145 -0.4073,0.572 -0.64894,1.04 -0.53697,1.04 0.11197,0 -0.0784,0.396 -0.42303,0.88 -0.34464,0.484 -0.62248,0.952 -0.61741,1.04 0.005,0.088 -0.54147,1.312 -1.21453,2.72 -0.67305,1.408 -1.23812,2.632 -1.25572,2.72 -0.0176,0.088 -0.23778,0.52 -0.48931,0.96 -0.25153,0.44 -0.4727,0.872 -0.4915,0.96 -0.0188,0.088 -0.22217,0.545381 -0.45195,1.016403 -0.26699,0.547299 -0.32731,1.18254 -0.16712,1.76 0.13786,0.496978 0.28968,1.099189 0.33738,1.338246 0.10793,0.540912 1.46838,2.016827 1.67166,1.813544 0.0821,-0.08211 0.56154,0.144267 1.06541,0.503052 0.50387,0.358784 0.91612,0.552898 0.91612,0.431363 0,-0.121535 0.18,-0.07469 0.4,0.104109 0.22,0.178795 0.94,0.628427 1.6,0.999183 0.66,0.370755 1.74,0.976713 2.4,1.346573 0.66,0.369861 1.42734,0.873861 1.7052,1.12 0.27786,0.24614 0.61713,0.447527 0.75395,0.447527 0.13681,0 0.7942,0.432 1.46085,0.96 0.66665,0.528 1.29051,0.96 1.38635,0.96 0.30845,0 5.14723,3.747841 5.94943,4.608085 0.42668,0.457554 0.95148,0.831915 1.16622,0.831915 0.67729,0 11.338,11.563467 11.338,12.298112 0,0.120819 0.84307,1.32717 1.87348,2.68078 1.03042,1.35361 1.86273,2.533108 1.84959,2.621108 -0.0131,0.088 0.44671,0.844 1.02189,1.68 0.57518,0.836 0.95995,1.52 0.85504,1.52 -0.10491,0 0.27986,0.684 0.85504,1.52 0.57518,0.836 0.9781,1.584471 0.89537,1.663268 -0.0827,0.0788 0.62737,0.549588 1.578,1.0462 2.02931,1.060122 1.93349,1.078983 6.43159,-1.266013 z M 54.96,91.112849 C 55.532,90.563732 56,90.00827 56,89.87849 56,89.593689 57.677803,86.749676 58.932486,84.907687 59.431619,84.174915 59.84,83.418915 59.84,83.227687 59.84,83.03646 59.987564,82.88 60.16792,82.88 c 0.180356,0 0.455791,-0.324 0.612077,-0.72 0.156286,-0.396 1.016368,-1.620285 1.911293,-2.720634 0.894924,-1.100349 1.616546,-2.082025 1.603604,-2.181502 -0.01294,-0.09948 1.380794,-1.769152 3.097191,-3.710388 2.837148,-3.208799 8.546849,-8.541097 10.089892,-9.422965 0.342108,-0.195519 0.940616,-0.637821 1.330019,-0.982894 0.903872,-0.800976 4.01223,-2.981617 4.250096,-2.981617 0.09933,0 0.652594,-0.36 1.229464,-0.8 0.57687,-0.44 1.167923,-0.8 1.313452,-0.8 0.145529,0 0.491937,-0.201387 0.769795,-0.447527 0.588018,-0.520893 2.316634,-1.518843 4.885205,-2.820284 C 93.546086,54.133881 95.04,52.492811 95.04,51.139855 95.04,50.591024 94.580624,49.192034 94.019164,48.03099 93.457704,46.869946 92.983692,45.848 92.965805,45.76 92.947918,45.672 91.839859,43.368 90.503454,40.64 89.167048,37.912 86.99573,33.448 85.678304,30.72 79.766143,18.477669 77.621986,14.185457 77.051304,13.450327 75.70724,11.718954 73.406245,11.594695 70.88,13.117064 c -0.528,0.318183 -2.108775,1.176353 -3.512834,1.907044 -1.404059,0.730691 -2.772059,1.501185 -3.04,1.71221 -0.4771,0.375754 -0.826624,0.583665 -3.171008,1.886247 -0.635887,0.35331 -1.383497,0.843768 -1.661355,1.089908 -0.277858,0.24614 -0.613624,0.447527 -0.746145,0.447527 -0.132521,0 -0.856014,0.504 -1.60776,1.12 -0.751747,0.616 -1.464218,1.12 -1.583269,1.12 -0.243882,0 -2.96036,2.016081 -4.716533,3.500456 C 50.203699,26.439205 49.590098,26.88 49.477538,26.88 c -0.11256,0 -1.402821,1.044 -2.867248,2.32 -6.968188,6.071596 -9.171101,8.042562 -9.180601,8.213965 -0.0057,0.102319 -1.805671,2.051966 -4,4.332547 C 31.23536,44.027094 29.44,46.068643 29.44,46.283287 c 0,0.214644 -0.36,0.673438 -0.8,1.019542 -0.44,0.346104 -0.8,0.721573 -0.8,0.834375 0,0.112802 -0.936,1.336459 -2.08,2.719236 -1.144,1.382778 -2.08,2.603153 -2.08,2.711945 0,0.108791 -0.792,1.268746 -1.76,2.577676 -0.968,1.308931 -1.76,2.481947 -1.76,2.606702 0,0.124755 -0.348861,0.684208 -0.775247,1.243228 -0.778435,1.020581 -1.548343,2.297595 -2.987298,4.954907 -0.426163,0.786994 -1.01918,1.794994 -1.317815,2.24 -0.298636,0.445006 -0.723617,1.339623 -0.944403,1.988037 -0.695357,2.042159 0.574592,3.947863 3.624763,5.439372 0.996067,0.487068 5.534285,2.903617 8.32,4.430305 0.88,0.482276 3.256,1.739298 5.28,2.793383 4.939864,2.572644 8.497224,4.446096 12.209312,6.429926 7.281543,3.891432 8.048284,4.225966 9.230688,4.027405 0.626667,-0.105236 1.578094,-0.62785 2.16,-1.186477 z M 248.74046,167.0347 c 0.49525,-0.14866 1.09782,-0.43409 1.33905,-0.63429 0.54594,-0.45309 1.76993,-2.7643 1.56989,-2.96435 -0.081,-0.081 0.0135,-0.56327 0.21006,-1.07168 0.19656,-0.50841 0.40233,-1.14038 0.45729,-1.40438 0.0549,-0.264 0.34364,-1.416 0.64152,-2.56 0.29788,-1.144 0.58109,-2.368 0.62935,-2.72 0.0483,-0.352 0.17435,-0.856 0.2802,-1.12 0.10584,-0.264 0.25756,-1.06449 0.33714,-1.77886 0.0796,-0.71438 0.31748,-2.22638 0.52865,-3.36 0.21118,-1.13363 0.40632,-2.56514 0.43366,-3.18114 0.0273,-0.616 0.16239,-1.3 0.3001,-1.52 0.13772,-0.22 0.18164,-0.51125 0.0976,-0.64723 -0.084,-0.13597 -0.0385,-1.03597 0.10119,-2 0.15214,-1.0499 0.27,3.6688 0.29391,11.76723 l 0.0399,13.52 -4.08,-0.0275 c -2.75573,-0.0186 -3.78773,-0.11524 -3.17954,-0.2978 z"
         id="path14" />
      <path
         style="fill:#e1e7ef"
         d="m 245.98086,167.1542 c -0.13166,-0.13167 -0.42661,-0.26687 -0.65544,-0.30045 -0.22882,-0.0336 -1.62866,-0.43049 -3.11073,-0.882 -1.48208,-0.45152 -3.34269,-0.99613 -4.13469,-1.21025 -0.792,-0.21412 -1.584,-0.42863 -1.76,-0.47669 -0.176,-0.0481 -0.608,-0.16145 -0.96,-0.25195 -0.90178,-0.23187 -6.30119,-1.83101 -6.88,-2.03765 -0.264,-0.0942 -0.74697,-0.22311 -1.07327,-0.28635 -0.3263,-0.0632 -1.89575,-0.54086 -3.48767,-1.06135 -1.59192,-0.5205 -3.007,-0.87677 -3.14462,-0.79171 -0.13762,0.0851 -0.33058,0.0246 -0.42879,-0.1343 -0.0982,-0.15892 -0.68548,-0.38404 -1.30503,-0.50027 -0.61954,-0.11623 -2.24113,-0.56673 -3.60353,-1.00113 -1.3624,-0.43439 -2.83709,-0.86719 -3.27709,-0.96177 -0.92707,-0.19927 -1.25913,-0.29323 -1.92,-0.54327 -0.264,-0.0999 -0.8649,-0.26559 -1.33534,-0.36824 -0.97338,-0.21239 -2.68478,-1.54629 -2.7846,-2.17039 -0.31694,-1.98139 -0.19644,-4.08652 0.3309,-5.78087 0.33384,-1.07262 0.66523,-2.39242 0.73641,-2.93289 0.0712,-0.54047 0.15557,-0.98267 0.18752,-0.98267 0.0319,0 0.10426,-0.38593 0.1607,-0.85763 0.0564,-0.47169 0.3335,-2.19548 0.61568,-3.83064 0.28219,-1.63516 0.58669,-4.63323 0.67668,-6.66237 0.09,-2.02915 0.23012,-3.88533 0.3114,-4.12484 0.15038,-0.44309 -0.39098,-9.3335 -0.67496,-11.08452 -0.0856,-0.528 -0.21859,-1.464 -0.29546,-2.08 -0.13197,-1.05757 -1.28636,-6.77538 -1.64745,-8.16 -0.0918,-0.352 -0.20287,-0.856 -0.24682,-1.12 -0.044,-0.264 -0.17738,-0.696 -0.29649,-0.96 -0.80656,-1.78764 -2.05762,-6.635442 -2.01152,-7.79455 0.0784,-1.97123 0.80355,-2.876043 2.97023,-3.706195 1.02471,-0.392617 2.23891,-0.913771 2.69822,-1.15812 0.4593,-0.244348 0.91481,-0.364559 1.01223,-0.267134 0.0974,0.09743 0.54964,-0.06693 1.00491,-0.365235 0.45527,-0.298305 0.82776,-0.436179 0.82776,-0.306387 0,0.129792 0.18,0.09528 0.4,-0.07671 0.22,-0.17198 1.552,-0.70036 2.96,-1.174177 1.408,-0.473816 2.82832,-1.010147 3.15626,-1.191847 0.32794,-0.181699 0.83194,-0.386148 1.12,-0.45433 0.28806,-0.06818 1.53174,-0.495094 2.76374,-0.948694 1.232,-0.453599 2.888,-1.038941 3.68,-1.30076 0.792,-0.261818 1.70832,-0.626906 2.03626,-0.811306 0.32794,-0.1844 0.83194,-0.386442 1.12,-0.448983 0.28806,-0.06254 2.32374,-0.782081 4.52374,-1.598976 2.2,-0.816896 4.144,-1.524565 4.32,-1.572599 0.176,-0.04803 0.56075,-0.192176 0.85501,-0.320315 0.29426,-0.128139 0.72626,-0.264814 0.96,-0.303723 0.23374,-0.03891 0.7162,-0.231335 1.07212,-0.427615 0.94664,-0.522038 3.88322,-0.997885 4.3558,-0.705817 0.22358,0.138182 0.49935,0.193862 0.61282,0.123733 0.11347,-0.07013 0.59801,0.281339 1.07676,0.781039 0.7772,0.811228 2.50624,5.132597 2.94733,7.366274 0.0845,0.427667 0.24999,0.931667 0.36786,1.12 0.11787,0.188333 0.24723,0.486423 0.28746,0.662423 0.0402,0.176 0.31077,1.184 0.60118,2.24 0.48514,1.76412 1.344,5.410869 1.54497,6.56 0.0462,0.264 0.17038,0.696004 0.27602,0.960004 0.10564,0.264 0.34082,1.416 0.52262,2.56 0.34889,2.19539 0.68518,4.21496 0.8792,5.28 0.13613,0.74727 0.37936,2.62471 0.74624,5.76 0.40585,3.46833 0.14485,30.16087 -0.2996,30.64 -0.0408,0.044 -0.11336,0.656 -0.16122,1.36 -0.0478,0.704 -0.25978,2.20751 -0.47096,3.34114 -0.21117,1.13362 -0.44906,2.64562 -0.52865,3.36 -0.0796,0.71437 -0.2313,1.51486 -0.33714,1.77886 -0.10585,0.264 -0.23193,0.768 -0.2802,1.12 -0.0483,0.352 -0.33147,1.576 -0.62935,2.72 -0.29788,1.144 -0.58657,2.296 -0.64152,2.56 -0.055,0.264 -0.26073,0.89597 -0.45729,1.40438 -0.19655,0.50841 -0.29108,0.99067 -0.21006,1.07168 0.2665,0.26651 -1.16135,2.67638 -1.85263,3.12681 -0.79942,0.52089 -3.47217,0.93507 -3.81591,0.59133 z M 201.88841,91.909468 c -0.95063,-0.496612 -1.66072,-0.967402 -1.578,-1.0462 0.0827,-0.0788 -0.32019,-0.827268 -0.89537,-1.663268 -0.57518,-0.836 -0.95995,-1.52 -0.85504,-1.52 0.10491,0 -0.27986,-0.684 -0.85504,-1.52 -0.57518,-0.836 -1.03504,-1.592 -1.02189,-1.68 0.0131,-0.088 -0.81917,-1.267498 -1.84959,-2.621108 C 193.80307,80.505282 192.96,79.298931 192.96,79.178112 192.96,78.443467 182.29929,66.88 181.622,66.88 c -0.21474,0 -0.73954,-0.374361 -1.16622,-0.831915 C 179.65358,65.187841 174.8148,61.44 174.50635,61.44 c -0.0958,0 -0.7197,-0.432 -1.38635,-0.96 -0.66665,-0.528 -1.32404,-0.96 -1.46085,-0.96 -0.13682,0 -0.47609,-0.201387 -0.75395,-0.447527 -0.27786,-0.246139 -1.0452,-0.750139 -1.7052,-1.12 -0.66,-0.36986 -1.74,-0.975818 -2.4,-1.346573 -0.66,-0.370756 -1.38,-0.820388 -1.6,-0.999183 -0.22,-0.178795 -0.4,-0.225644 -0.4,-0.104109 0,0.121535 -0.41225,-0.07258 -0.91612,-0.431363 -0.50387,-0.358785 -0.9833,-0.585158 -1.06541,-0.503052 -0.20328,0.203283 -1.56373,-1.272632 -1.67166,-1.813544 -0.0477,-0.239057 -0.19952,-0.841268 -0.33738,-1.338246 -0.16019,-0.57746 -0.0999,-1.212701 0.16712,-1.76 0.22978,-0.471022 0.43316,-0.928403 0.45195,-1.016403 0.0188,-0.088 0.23997,-0.52 0.4915,-0.96 0.25153,-0.44 0.47172,-0.872 0.48931,-0.96 0.0176,-0.088 0.58267,-1.312 1.25572,-2.72 0.67306,-1.408 1.21959,-2.632 1.21453,-2.72 -0.005,-0.088 0.27277,-0.556 0.61741,-1.04 0.34463,-0.484 0.535,-0.88 0.42303,-0.88 -0.11197,0 0.12967,-0.468 0.53697,-1.04 0.40729,-0.572 0.70403,-1.076515 0.65941,-1.121145 -0.0446,-0.04463 0.67117,-1.62863 1.59065,-3.52 0.91947,-1.89137 1.68165,-3.510855 1.69371,-3.598855 0.0121,-0.088 0.22773,-0.52 0.47926,-0.96 0.25153,-0.44 0.46998,-0.872 0.48545,-0.96 0.0155,-0.088 0.80502,-1.744 1.75455,-3.68 0.94953,-1.936 1.73908,-3.592 1.75455,-3.68 0.0155,-0.088 0.23392,-0.52 0.48545,-0.96 0.25153,-0.44 0.47172,-0.872 0.48931,-0.96 0.0176,-0.088 0.55054,-1.24 1.18432,-2.56 1.18425,-2.466477 2.5507,-4.083271 3.63216,-4.297588 0.33782,-0.06695 0.75821,-0.158997 0.93421,-0.204558 0.7509,-0.194386 5.45998,1.862297 6.8,2.96989 0.22,0.181842 0.4,0.23366 0.4,0.115153 0,-0.118507 0.504,0.168952 1.12,0.638798 0.616,0.469846 1.12,0.757846 1.12,0.64 0,-0.117846 0.48159,0.153063 1.07021,0.60202 0.58861,0.448957 1.18702,0.816285 1.32979,0.816285 0.14277,0 0.73157,0.36 1.30844,0.8 0.57687,0.44 1.14574,0.8 1.26416,0.8 0.11842,0 0.8062,0.468 1.52841,1.04 0.72221,0.572 1.31893,0.969213 1.32605,0.882696 0.0127,-0.154244 1.40714,0.816343 3.75418,2.613046 0.64968,0.497342 1.2784,0.904258 1.39717,0.904258 0.11876,0 1.19048,0.864 2.38159,1.92 1.19111,1.056 2.29454,1.92 2.45207,1.92 0.15753,0 1.2141,0.936 2.34793,2.08 1.13383,1.144 2.20967,2.074945 2.39076,2.068767 0.33282,-0.01136 10.72591,10.569249 10.72807,10.921637 6.4e-4,0.104722 0.30584,0.464722 0.67821,0.8 0.92999,0.837335 6.36296,7.370801 6.36296,7.651824 0,0.124864 0.7324,1.147443 1.62755,2.272399 0.89516,1.124955 1.50716,2.049752 1.36,2.055104 -0.14715,0.0054 -0.0156,0.156507 0.29245,0.335901 0.308,0.179393 0.56,0.469163 0.56,0.643933 0,0.17477 0.58054,1.103614 1.29009,2.064099 0.70956,0.960485 1.20129,1.746336 1.09275,1.746336 -0.10854,0 0.33118,0.72 0.97716,1.6 0.64598,0.88 1.08333,1.6 0.97188,1.6 -0.11144,0 0.24321,0.648 0.78812,1.44 0.54491,0.792 0.90851,1.44 0.808,1.44 -0.10052,0 0.0414,0.342074 0.31533,0.760165 0.27394,0.41809 0.5516,1.03009 0.61703,1.36 0.0654,0.329909 0.16394,0.743835 0.21894,0.919835 0.22242,0.711824 -0.68756,2.379308 -1.76962,3.242701 -0.63229,0.504514 -1.25763,0.918142 -1.38965,0.919171 -0.2252,0.0018 -1.17772,0.517422 -3.44003,1.862334 -0.528,0.313889 -1.464,0.795324 -2.08,1.069856 -0.616,0.274532 -1.516,0.780482 -2,1.124334 -0.484,0.343851 -0.88,0.533573 -0.88,0.421604 0,-0.111969 -0.396,0.06773 -0.88,0.399334 -0.484,0.331603 -1.744,1.021308 -2.8,1.532679 -1.056,0.51137 -2.46,1.259671 -3.12,1.66289 -0.66,0.403219 -1.2,0.649514 -1.2,0.547321 0,-0.102192 -0.41225,0.107747 -0.91612,0.466532 -0.50387,0.358784 -1.00787,0.56059 -1.12,0.448457 -0.11213,-0.112134 -0.20388,-0.03588 -0.20388,0.169454 0,0.205333 -0.14686,0.373333 -0.32636,0.373333 -0.1795,0 -0.8995,0.361807 -1.6,0.804015 -0.7005,0.442207 -1.27364,0.725016 -1.27364,0.628463 0,-0.09655 -0.53743,0.189641 -1.19428,0.635986 -0.65686,0.446345 -1.31863,0.811536 -1.4706,0.811536 -0.15198,0 -0.69455,0.297806 -1.20572,0.66179 -0.51117,0.363985 -0.9294,0.562353 -0.9294,0.440818 0,-0.121535 -0.18,-0.07469 -0.4,0.104103 -0.56801,0.461611 -6.98515,3.786521 -7.79159,4.037051 -0.437,0.13576 -1.27533,-0.106758 -2.4,-0.694294 z"
         id="path13" />
      <path
         style="fill:#8d4dfe"
         d="m 6.8495705,166.00002 c -0.3687362,-0.192 -0.850017,-0.79255 -1.0695129,-1.33456 C 5.182068,163.18884 4.4625846,160.90319 4.3114461,160 4.2378176,159.56 3.764005,157.256 3.2585293,154.88 2.2542006,150.15913 1.2859578,144.11545 1.1309753,141.6 1.0767564,140.72 0.92304037,138.704 0.78938405,137.12 0.33862886,131.77797 0.65378576,116.71511 1.2848354,113.44 c 0.169559,-0.88 0.5084444,-3.184 0.7530787,-5.12 0.2446343,-1.936 0.5322275,-3.88 0.6390958,-4.32 0.1068684,-0.44 0.4991608,-2.384 0.8717609,-4.32 0.3726,-1.936 0.7869257,-3.664 0.9207236,-3.84 0.1337979,-0.176 0.2513918,-0.536 0.2613196,-0.8 0.049519,-1.316791 2.6241117,-9.302231 3.8308797,-11.881977 0.7376554,-1.576909 2.8160583,-2.349293 4.1626483,-1.546938 0.540652,0.322143 5.722344,2.22534 13.195658,4.846668 2.024,0.709935 3.824,1.379203 4,1.487262 0.176,0.108058 0.596698,0.239502 0.934885,0.292096 0.338187,0.05259 0.770187,0.214499 0.96,0.35979 0.189813,0.14529 1.929115,0.810669 3.865115,1.478619 1.936,0.667951 3.7,1.355844 3.92,1.528651 0.22,0.172807 0.4,0.220864 0.4,0.106794 0,-0.11407 0.396,-0.0073 0.88,0.237348 0.484,0.244612 2.392,0.957742 4.24,1.584734 1.848,0.626992 3.783495,1.360128 4.301099,1.62919 2.041754,1.06135 2.310819,3.349258 0.832366,7.077763 -0.139578,0.352 -0.395691,1 -0.569141,1.44 -0.173449,0.44 -0.629831,2.312 -1.014181,4.16 -0.38435,1.848 -0.824455,3.59097 -0.97801,3.87327 -0.153555,0.2823 -0.444471,2.2263 -0.64648,4.32 -0.202009,2.0937 -0.501921,4.24895 -0.666471,4.78945 -0.390965,1.2842 -0.367828,11.13898 0.03338,14.21728 0.172041,1.32 0.388365,3.264 0.48072,4.32 0.09236,1.056 0.526388,3.504 0.964518,5.44 1.00757,4.45224 1.063318,4.7475 1.30216,6.89668 0.185513,1.66931 0.139386,1.83474 -0.763266,2.7374 -0.528392,0.52839 -1.589808,1.12165 -2.358703,1.31836 -3.879344,0.99248 -10.007352,2.75175 -11.477991,3.2952 -0.44,0.16259 -1.16,0.35548 -1.6,0.42864 -0.44,0.0732 -2.672,0.70647 -4.96,1.40734 -4.430859,1.35729 -12.162113,3.60576 -12.96,3.76913 -0.264,0.0541 -0.48,0.12032 -0.48,0.14725 0,0.0269 -0.216,0.10015 -0.48,0.16272 -0.264,0.0626 -1.272,0.3533 -2.24,0.6461 -2.2633538,0.6846 -4.1438604,0.83202 -4.9904295,0.3912 z M 124.24466,143.18669 c -2.64482,-0.71228 -4.86615,-1.99572 -6.99924,-4.04403 -6.26351,-6.01452 -6.55529,-15.3908 -0.67252,-21.61096 0.89532,-0.94667 3.72468,-3.13661 6.28748,-4.86653 18.99179,-12.819737 46.73635,-31.807093 47.46515,-32.483411 1.20891,-1.121846 3.14691,-1.138405 4.24902,-0.0363 1.06385,1.063853 1.07648,2.977928 0.0279,4.229993 -0.41664,0.497504 -7.63853,11.704552 -16.04864,24.904548 -18.22717,28.60826 -17.8538,28.0475 -20.0596,30.12748 -3.86025,3.64006 -9.35504,5.09737 -14.24956,3.77921 z M 48.488109,90.411463 C 46.590865,89.443091 44.840895,88.486729 44.599287,88.286212 44.357679,88.085695 44.157795,88.047268 44.1551,88.200818 44.152405,88.354368 44.044405,88.336 43.9151,88.16 43.785795,87.984 42.528,87.264 41.12,86.56 39.712,85.856 38.488,85.207654 38.4,85.119231 c -0.088,-0.08842 -1.456,-0.823752 -3.04,-1.634063 -5.333945,-2.728635 -5.757543,-2.955948 -6.64,-3.563194 -0.484,-0.333055 -0.88,-0.521942 -0.88,-0.41975 0,0.102193 -0.573138,-0.176002 -1.273641,-0.618209 C 25.865856,78.441807 25.179284,78.08 25.040642,78.08 24.902,78.08 24.251139,77.714809 23.594283,77.268464 22.937427,76.822119 22.4,76.551751 22.4,76.667646 c 0,0.115896 -0.18,0.06404 -0.4,-0.115244 -0.22,-0.179279 -1.696,-1.001545 -3.28,-1.827256 -3.477537,-1.81278 -3.596912,-1.906843 -4.174588,-3.289416 -0.418087,-1.000625 -0.39761,-1.237752 0.237085,-2.745474 0.382083,-0.907641 1.100328,-2.252201 1.5961,-2.987912 C 16.874369,64.966633 17.28,64.236285 17.28,64.079349 c 0,-0.156937 0.427994,-0.850992 0.951098,-1.542344 0.523103,-0.691353 0.955103,-1.383807 0.96,-1.538787 0.0049,-0.154981 0.512902,-0.983314 1.128902,-1.840741 0.616,-0.857427 1.12,-1.702625 1.12,-1.878218 0,-0.175592 0.144,-0.319259 0.32,-0.319259 0.176,0 0.32,-0.147091 0.32,-0.326869 0,-0.179778 0.72,-1.243052 1.6,-2.362831 0.88,-1.119779 1.6,-2.143861 1.6,-2.275737 0,-0.75411 13.356696,-15.50706 15.52,-17.142397 0.528,-0.399138 2.133939,-1.816159 3.568753,-3.148936 3.094855,-2.874761 7.041523,-6.153524 7.327713,-6.087623 0.111841,0.02575 0.58589,-0.3019 1.053441,-0.72812 C 53.765435,23.96173 56.87559,21.76 57.167783,21.76 c 0.113466,0 0.833133,-0.513641 1.59926,-1.141424 C 59.533169,19.990793 60.16,19.566121 60.16,19.674861 c 0,0.10874 0.481592,-0.169619 1.070205,-0.618576 C 61.818818,18.607328 62.417226,18.24 62.56,18.24 c 0.142774,0 0.741182,-0.367328 1.329795,-0.816285 0.588613,-0.448957 1.070205,-0.719866 1.070205,-0.60202 0,0.117846 0.504,-0.170154 1.12,-0.64 0.616,-0.469846 1.12,-0.757305 1.12,-0.638798 0,0.118507 0.18,0.06669 0.4,-0.115153 0.59328,-0.490375 4.780135,-2.654305 5.52,-2.85295 2.231678,-0.59918 3.42714,0.259628 5.164492,3.710119 0.728471,1.446789 1.350494,2.730552 1.382274,2.852806 0.03178,0.122255 1.229029,2.598281 2.660551,5.502281 1.431523,2.904 2.617054,5.352 2.634512,5.44 0.01746,0.088 0.808636,1.744 1.758171,3.68 0.949535,1.936 1.737868,3.592 1.751852,3.68 0.01398,0.088 1.438273,3.021535 3.165089,6.518966 2.749594,5.56893 3.113559,6.498121 2.929542,7.47902 -0.252179,1.344229 -1.369268,2.374461 -4.28321,3.950174 -3.469847,1.876319 -4.654871,2.571627 -5.18847,3.044313 -0.277858,0.24614 -0.643298,0.447527 -0.812088,0.447527 -0.16879,0 -0.805451,0.426148 -1.414803,0.946995 -0.609351,0.520847 -1.207049,0.952847 -1.328217,0.96 -0.355596,0.02099 -5.149108,3.713474 -5.98621,4.611228 -0.421583,0.452129 -0.872008,0.756854 -1.000943,0.677168 C 74.025194,65.749472 62.838268,77.953856 62.302116,79.44 62.191,79.748 61.951567,80 61.770043,80 61.588519,80 61.44,80.154938 61.44,80.344306 c 0,0.189369 -0.628715,1.161369 -1.397144,2.16 -0.76843,0.998632 -1.384743,1.887694 -1.369586,1.975694 0.01516,0.088 -0.418277,0.808 -0.963187,1.6 -0.54491,0.792 -0.990078,1.561054 -0.989261,1.709008 0.0028,0.498737 -1.950693,3.043543 -2.698906,3.515935 -1.562545,0.986531 -1.983688,0.918534 -5.533807,-0.89348 z M 99.124023,50.073297 C 98.642235,49.80406 98.046755,49.191426 97.800734,48.711888 97.008676,47.168028 85.12,10.672704 85.12,9.7851391 c 0,-2.2145671 1.069521,-3.0034993 6.08,-4.4849106 9.77439,-2.8899224 19.83512,-4.51520207 30.64,-4.94979647 15.40125,-0.61947013 29.69281,1.02718497 42.96,4.94979647 5.01048,1.4814113 6.08,2.2703435 6.08,4.4849106 0,0.8885509 -11.88914,37.3838009 -12.68213,38.9294449 -0.62797,1.223988 -2.14543,1.935069 -3.7581,1.761043 C 153.7139,50.397297 151.104,49.806931 148.64,49.163703 141.12941,47.20306 136.30861,46.605567 128,46.605567 c -8.31351,0 -13.1399,0.598713 -20.64,2.560389 -5.32027,1.391535 -7.03207,1.58012 -8.235977,0.907341 z"
         id="path12" />
    </g>
  </g>
</svg>
